<svg xmlns="http://www.w3.org/2000/svg" x="0px" y="0px"
     width="50" height="50"
     viewBox="0 0 252 252"
     style="fill:#000000;"><g fill="none" fill-rule="nonzero" stroke="none" stroke-width="1" stroke-linecap="butt" stroke-linejoin="miter" stroke-miterlimit="10" stroke-dasharray="" stroke-dashoffset="0" font-family="none" font-weight="none" font-size="none" text-anchor="none" style="mix-blend-mode: normal"><path d="M0,252v-252h252v252z" fill="none"></path><g><g id="surface1"><path d="M232.3125,122.0625c0,60.89282 -49.35718,110.25 -110.25,110.25c-60.89282,0 -110.25,-49.35718 -110.25,-110.25c0,-60.89282 49.35718,-110.25 110.25,-110.25c60.89282,0 110.25,49.35718 110.25,110.25z" fill="#bdc3c7"></path><path d="M59.0625,161.4375c0,10.87427 -8.81323,19.6875 -19.6875,19.6875c-10.87427,0 -19.6875,-8.81323 -19.6875,-19.6875c0,-10.87427 8.81323,-19.6875 19.6875,-19.6875c10.87427,0 19.6875,8.81323 19.6875,19.6875z" fill="#95a5a6"></path><path d="M102.375,92.53125c0,9.78223 -7.93652,17.71875 -17.71875,17.71875c-9.78223,0 -17.71875,-7.93652 -17.71875,-17.71875c0,-9.78223 7.93652,-17.71875 17.71875,-17.71875c9.78223,0 17.71875,7.93652 17.71875,17.71875z" fill="#95a5a6"></path><path d="M153.5625,145.6875c0,6.52148 -5.29102,11.8125 -11.8125,11.8125c-6.52148,0 -11.8125,-5.29102 -11.8125,-11.8125c0,-6.52148 5.29102,-11.8125 11.8125,-11.8125c6.52148,0 11.8125,5.29102 11.8125,11.8125z" fill="#95a5a6"></path><path d="M202.85815,67.13745c-4.87573,3.30689 -11.44336,2.52246 -15.39624,-1.86108c-26.23974,-30.20801 -69.76758,-38.49829 -105.28198,-20.07202c-5.29102,2.61474 -11.68945,0.93823 -15.01172,-3.9375c-1.90723,-2.79932 -2.52246,-6.27539 -1.6919,-9.5669c0.81519,-3.27612 3.01465,-6.04468 6.0293,-7.59814c45.11206,-23.27124 100.2832,-12.75073 133.64429,25.51685c2.21484,2.53784 3.22998,5.92163 2.78393,9.27466c-0.43066,3.33765 -2.27637,6.33691 -5.07569,8.24414z" fill="#ecf0f1"></path><path d="M176.98755,202.85815c1.92261,2.79932 2.53784,6.27539 1.70728,9.5669c-0.83057,3.27612 -3.03003,6.04468 -6.0293,7.59814c-45.12744,23.302 -100.31397,12.76612 -133.69043,-25.51684c-2.23023,-2.53784 -3.24536,-5.93701 -2.8147,-9.29004c0.44604,-3.35303 2.29175,-6.36768 5.10645,-8.25952c4.87573,-3.32227 11.44336,-2.52246 15.39624,1.8457c26.23975,30.20801 69.76758,38.51367 105.28198,20.0874c5.29102,-2.61475 11.68945,-0.93823 15.01172,3.9375z" fill="#95a5a6"></path><path d="M122.0625,7.875c-63.06152,0 -114.1875,51.12598 -114.1875,114.1875c0,63.06152 51.12598,114.1875 114.1875,114.1875c63.06152,0 114.1875,-51.12598 114.1875,-114.1875c0,-63.06152 -51.12598,-114.1875 -114.1875,-114.1875zM122.0625,228.375c-34.23779,-0.03076 -66.36841,-16.5498 -86.31738,-44.37378c10.19751,1.46118 20.10278,-4.13745 24.10181,-13.62744c3.99902,-9.48999 1.09204,-20.4873 -7.09058,-26.74731c-8.16724,-6.27539 -19.54907,-6.22925 -27.67017,0.09228c-1.72266,1.33814 -2.03027,3.81445 -0.69214,5.53711c1.33813,1.70728 3.81445,2.01489 5.53711,0.67676c6.1062,-4.70654 14.82715,-3.89136 19.96435,1.87647c5.13721,5.75244 4.96802,14.50415 -0.41528,20.04126c-5.36792,5.55249 -14.10425,5.99854 -20.02588,1.0459c-0.30762,-0.23071 -0.63061,-0.41528 -0.98437,-0.55371c-22.62525,-42.12817 -14.31958,-94.177 20.27197,-127.18433c34.59156,-33.02271 86.97876,-38.86743 127.99951,-14.31958c41.03613,24.56324 60.61597,73.50513 47.84985,119.58618c-12.75074,46.08105 -54.70972,77.98096 -102.52881,77.9502z" fill="#2c3e50"></path><path d="M122.0625,192.9375c-2.1687,0 -3.9375,1.7688 -3.9375,3.9375v7.875c0,2.1687 1.7688,3.9375 3.9375,3.9375c2.1687,0 3.9375,-1.7688 3.9375,-3.9375v-7.875c0,-2.1687 -1.7688,-3.9375 -3.9375,-3.9375z" fill="#2c3e50"></path><path d="M145.6875,193.24512c-0.61523,-2.01489 -2.73779,-3.19922 -4.78345,-2.64551c-2.06103,0.55371 -3.2915,2.63013 -2.81469,4.70654l2.04565,7.59814c0.58447,2.10718 2.75317,3.35303 4.86035,2.76855c2.10718,-0.56909 3.35303,-2.75317 2.78393,-4.86035z" fill="#2c3e50"></path><path d="M85.64063,183.17065c-0.90747,-0.52295 -1.98413,-0.66137 -2.99927,-0.3999c-1.01513,0.27685 -1.87646,0.95361 -2.39941,1.86108l-3.9375,6.81372c-0.96899,1.86108 -0.30762,4.16821 1.52271,5.22949c1.83032,1.06128 4.16821,0.47681 5.29102,-1.29199l3.9375,-6.81372c0.53833,-0.90747 0.67676,-1.98413 0.41528,-2.99927c-0.26147,-0.99975 -0.92285,-1.87646 -1.83032,-2.39941z" fill="#2c3e50"></path><path d="M163.88306,184.63184c-1.13819,-1.78418 -3.47608,-2.35327 -5.29102,-1.29199c-1.83032,1.0459 -2.50708,3.35303 -1.52271,5.22949l3.9375,6.81372c1.1228,1.7688 3.46069,2.35327 5.29102,1.29199c1.83032,-1.06128 2.4917,-3.36841 1.52271,-5.22949z" fill="#2c3e50"></path><path d="M103.20557,190.46118c-2.10718,-0.55371 -4.24512,0.69214 -4.81421,2.78393l-2.04565,7.56738c-0.41528,1.3689 -0.06152,2.87622 0.95362,3.90674c0.99975,1.03051 2.4917,1.43042 3.87598,1.0459c1.38428,-0.38452 2.44555,-1.50733 2.76855,-2.90699l2.06103,-7.59814c0.53833,-2.0918 -0.70752,-4.24512 -2.79931,-4.79883z" fill="#2c3e50"></path><path d="M151.00928,44.57373c2.81469,1.06128 5.56787,2.26098 8.25952,3.6145c1.95337,0.98438 4.32202,0.19995 5.3064,-1.73804c0.969,-1.95337 0.18457,-4.32202 -1.75342,-5.3064c-2.95312,-1.47656 -5.96777,-2.78393 -9.05933,-3.9375c-1.33813,-0.58447 -2.8916,-0.38452 -4.02978,0.52295c-1.15357,0.90747 -1.70728,2.36865 -1.43042,3.79907c0.26147,1.4458 1.30737,2.61475 2.70703,3.04541z" fill="#2c3e50"></path><path d="M89.45508,45.71191c0.52295,0.01538 1.03052,-0.09228 1.50733,-0.27685c14.01196,-5.67554 29.31592,-7.3982 44.25073,-4.99878c2.1687,0.35376 4.21435,-1.13818 4.56811,-3.30688c0.35376,-2.1687 -1.13818,-4.21436 -3.30689,-4.56812c-16.36523,-2.63012 -33.13037,-0.7229 -48.46508,5.52173c-1.7688,0.69214 -2.78394,2.55322 -2.43018,4.41431c0.36914,1.86108 2.01489,3.19922 3.92212,3.18384z" fill="#2c3e50"></path><path d="M104.82056,93.03882c0,-2.1687 -1.7688,-3.9375 -3.9375,-3.9375c-2.18408,0 -3.9375,1.7688 -3.9375,3.9375c0.24609,6.52148 -4.56811,12.12012 -11.04346,12.82764c-6.49072,0.70752 -12.41235,-3.72217 -13.56592,-10.13599c-1.15357,-6.41382 2.84546,-12.62768 9.16699,-14.22729c2.10718,-0.52295 3.38379,-2.67627 2.86084,-4.78345c-0.53833,-2.10718 -2.67627,-3.38379 -4.78344,-2.84546c-1.35352,0.323 -2.67627,0.78442 -3.9375,1.3689c-9.12085,4.41431 -13.5813,14.87329 -10.45898,24.50171c3.12231,9.62842 12.8584,15.48853 22.8252,13.71973c9.98218,-1.7688 17.1189,-10.61279 16.73438,-20.7334z" fill="#2c3e50"></path><path d="M89.45508,77.76563c-0.52295,0.90747 -0.67676,1.98413 -0.3999,2.98389c0.26147,1.01513 0.92285,1.89184 1.81494,2.41479c0.86133,0.50757 1.66113,1.10742 2.36865,1.79956c1.55347,1.52271 4.04516,1.50733 5.56787,-0.04614c1.52271,-1.55347 1.50733,-4.06055 -0.06152,-5.58325c-1.18433,-1.13819 -2.50708,-2.12256 -3.9375,-2.95312c-1.86108,-1.07666 -4.24512,-0.46143 -5.35254,1.38428z" fill="#2c3e50"></path><path d="M141.75,129.9375c-8.70556,0 -15.75,7.04444 -15.75,15.75c0,8.70557 7.04444,15.75 15.75,15.75c8.70557,0 15.75,-7.04443 15.75,-15.75c0,-8.70556 -7.04443,-15.75 -15.75,-15.75zM141.75,153.5625c-4.35278,0 -7.875,-3.52222 -7.875,-7.875c0,-4.35278 3.52222,-7.875 7.875,-7.875c4.35278,0 7.875,3.52222 7.875,7.875c0,4.35278 -3.52222,7.875 -7.875,7.875z" fill="#2c3e50"></path><path d="M165.375,90.5625c0,4.35278 -3.52222,7.875 -7.875,7.875c-4.35278,0 -7.875,-3.52222 -7.875,-7.875c0,-4.35278 3.52222,-7.875 7.875,-7.875c4.35278,0 7.875,3.52222 7.875,7.875z" fill="#2c3e50"></path><path d="M196.875,133.875c0,4.35278 -3.52222,7.875 -7.875,7.875c-4.35278,0 -7.875,-3.52222 -7.875,-7.875c0,-4.35278 3.52222,-7.875 7.875,-7.875c4.35278,0 7.875,3.52222 7.875,7.875z" fill="#2c3e50"></path></g></g></g></svg>
